<?xml version="1.0" encoding="UTF-8"?>
<svg version="1.1" xmlns="http://www.w3.org/2000/svg" width="2112" height="2818">
<path d="M0 0 C1.96395382 -0.00208978 3.92790687 -0.00505487 5.89185822 -0.00880873 C11.27504182 -0.01657223 16.65815334 -0.01194986 22.04133572 -0.00525283 C27.9030734 -0.00016925 33.76480023 -0.00670329 39.62653637 -0.01173949 C49.89556038 -0.01895807 60.16456513 -0.01881435 70.43358994 -0.01364517 C81.44752253 -0.00813487 92.46144279 -0.00698823 103.47537613 -0.01111984 C104.52041937 -0.01150736 104.52041937 -0.01150736 105.5865746 -0.01190271 C108.42429453 -0.0129693 111.26201444 -0.01406672 114.09973434 -0.01520326 C140.5069979 -0.02577219 166.91425319 -0.02650364 193.32151794 -0.02090836 C194.10341121 -0.02074276 194.88530447 -0.02057717 195.69089146 -0.02040657 C196.47404062 -0.02024071 197.25718978 -0.02007485 198.06407073 -0.01990396 C221.93111712 -0.01485596 245.7981601 -0.01355557 269.66520691 -0.01594925 C271.26396726 -0.01610421 272.86272762 -0.01625852 274.46148797 -0.01641219 C280.88637737 -0.01703313 287.31126676 -0.01767047 293.73615615 -0.01833172 C311.69595058 -0.02016566 329.65574503 -0.02130691 347.61553955 -0.02190399 C348.43335974 -0.02193128 349.25117993 -0.02195857 350.09378255 -0.02198669 C376.14983301 -0.02280515 402.20588228 -0.02055199 428.26193237 -0.01620483 C429.10693338 -0.01606434 429.95193439 -0.01592384 430.82254149 -0.01577908 C444.54447612 -0.01348924 458.26641072 -0.01105029 471.98834532 -0.00859874 C526.40982078 0.0011138 580.83128641 0.000663 635.25276184 -0.00905991 C648.96780394 -0.01150232 662.68284605 -0.01392444 676.39788818 -0.01620483 C677.24239382 -0.01634573 678.08689945 -0.01648663 678.95699616 -0.01663179 C704.98609127 -0.02094469 731.01518555 -0.02277261 757.04428101 -0.02190399 C758.27010843 -0.02186324 758.27010843 -0.02186324 759.52070004 -0.02182166 C777.46060114 -0.02119668 795.40050216 -0.01992936 813.34040318 -0.01808299 C819.75952005 -0.01742471 826.17863692 -0.01679855 832.5977538 -0.01618156 C834.19463662 -0.01602679 835.79151943 -0.01586933 837.38840225 -0.01570917 C861.2485793 -0.01332278 885.10875251 -0.01535334 908.96892909 -0.02040657 C909.75082235 -0.02057216 910.53271562 -0.02073775 911.33830261 -0.02090836 C912.50897524 -0.0211564 912.50897524 -0.0211564 913.70329781 -0.02140946 C940.03497856 -0.02692771 966.3666494 -0.024893 992.69832873 -0.01434687 C995.52703395 -0.01324218 998.35573919 -0.01216877 1001.18444443 -0.01111984 C1001.87864828 -0.01085943 1002.57285214 -0.01059902 1003.28809247 -0.01033071 C1014.27140381 -0.00638901 1025.25470281 -0.00912912 1036.23801303 -0.01465785 C1047.04297053 -0.01995403 1057.84790635 -0.01791292 1068.65286124 -0.00862968 C1074.43043171 -0.00386806 1080.20795552 -0.00225397 1085.98552454 -0.00944164 C1091.24536692 -0.01591853 1096.50512139 -0.01313389 1101.76495741 -0.00308032 C1103.6521363 -0.00107224 1105.53932253 -0.00238171 1107.42649557 -0.0074922 C1139.34202373 -0.08776112 1166.616465 7.44262687 1190.10334778 29.90402603 C1213.45557644 54.36997637 1217.96519523 82.79031353 1217.83954491 115.42583843 C1217.82871182 119.41179003 1217.84137826 123.39768408 1217.85089231 127.38362959 C1217.86441316 134.38320934 1217.86317639 141.38266432 1217.85215813 148.38224668 C1217.83573814 158.86084555 1217.8425106 169.33934385 1217.8536887 179.81794509 C1217.87206588 197.67939018 1217.8714998 215.54078967 1217.86056519 233.40223885 C1217.84955411 251.49888279 1217.84724366 269.59549673 1217.85551453 287.69214249 C1217.85603122 288.83580973 1217.85654791 289.97947698 1217.85708026 291.15780081 C1217.85921337 295.81589644 1217.86140821 300.47399204 1217.86368136 305.1320876 C1217.88483192 348.50405114 1217.88627651 391.87599458 1217.87509155 435.24796104 C1217.87476037 436.53279992 1217.87442919 437.81763879 1217.87408797 439.14141217 C1217.87375625 440.42830756 1217.87342453 441.71520296 1217.87308276 443.04109518 C1217.86299142 482.24178075 1217.86038382 521.44245801 1217.86517334 560.64314461 C1217.86548326 563.26786024 1217.86579188 565.89257586 1217.86609922 568.51729149 C1217.86734108 579.06483684 1217.86861575 589.61238218 1217.86993827 600.15992752 C1217.87360636 629.64486538 1217.8758953 659.12980326 1217.87708282 688.61474133 C1217.8771103 689.28595064 1217.87713777 689.95715996 1217.87716608 690.64870896 C1217.87892083 734.11263096 1217.874519 777.57654998 1217.86568451 821.04047108 C1217.86554404 821.73425332 1217.86540356 822.42803557 1217.86525883 823.14284152 C1217.86055353 846.38063435 1217.85552921 869.61842713 1217.85047231 892.85621989 C1217.83519052 963.12771453 1217.82681646 1033.39919848 1217.85093364 1158.89731155 C1217.85598653 1182.13048669 1217.86098063 1205.36366183 1217.86568451 1228.59683704 C1217.86582549 1229.29045965 1217.86596647 1229.98408226 1217.86611172 1230.69872374 C1217.87493379 1274.14095502 1217.87886101 1317.58318422 1217.87708282 1361.02541637 C1217.8770558 1361.69639522 1217.87702878 1362.36737407 1217.87700093 1363.05868562 C1217.87577401 1393.18769567 1217.87321873 1423.31670548 1217.86944081 1453.44571532 C1217.86812424 1463.9835351 1217.86687191 1474.52135489 1217.86563797 1485.05917467 C1217.86532842 1487.68073008 1217.86501349 1490.30228548 1217.86469318 1492.92384089 C1217.85991787 1532.11522971 1217.8639864 1571.30660916 1217.87408797 1610.49799682 C1217.87458474 1612.42537932 1217.87458474 1612.42537932 1217.87509155 1614.39169884 C1217.87558765 1616.3155287 1217.87558765 1616.3155287 1217.87609376 1618.27822381 C1217.88712339 1661.52352325 1217.88307482 1704.76879855 1217.86196858 1748.01409454 C1217.85975914 1752.65693738 1217.85761233 1757.29978025 1217.85551453 1761.94262314 C1217.8549937 1763.08206303 1217.85447287 1764.22150292 1217.85393626 1765.39547129 C1217.84604378 1783.44455254 1217.85154276 1801.49360382 1217.86259055 1819.54268238 C1217.87316641 1837.28603146 1217.86946704 1855.02932991 1217.8505342 1872.77267257 C1217.83985589 1883.17715762 1217.84008902 1893.58150391 1217.85646059 1903.98598235 C1217.86624106 1910.89735204 1217.86149972 1917.80861376 1217.84499317 1924.71997039 C1217.83604213 1928.63691337 1217.83319313 1932.55358019 1217.84825924 1936.47051071 C1217.95424352 1966.12353575 1213.60640225 1990.77719873 1194.32991028 2014.25168228 C1193.58354309 2015.21847916 1193.58354309 2015.21847916 1192.82209778 2016.20480728 C1177.93711453 2034.60533934 1154.22430015 2045.52000596 1131.13107444 2048.53915216 C1121.84529705 2049.50982301 1112.55979685 2049.39144039 1103.23568535 2049.38031673 C1101.28552665 2049.38166441 1099.33536822 2049.38344889 1097.38521028 2049.38562897 C1092.02168425 2049.39035328 1086.65817523 2049.38885914 1081.29464837 2049.3863512 C1075.46112554 2049.38471742 1069.62760634 2049.38885954 1063.79408467 2049.39226037 C1053.56833742 2049.39741462 1043.34259446 2049.3988663 1033.11684608 2049.39780426 C1022.1463858 2049.39667923 1011.1759289 2049.39771591 1000.20546913 2049.40137672 C999.51213907 2049.40160638 998.81880901 2049.40183603 998.10446894 2049.40207264 C995.28055537 2049.4030143 992.4566418 2049.40396999 989.63272823 2049.40494383 C960.18345855 2049.41508471 930.73419077 2049.41814969 901.28491955 2049.41873594 C898.11567214 2049.41880069 894.94642474 2049.41886863 891.77717733 2049.41893935 C890.99070972 2049.41895636 890.2042421 2049.41897336 889.39394213 2049.41899088 C871.96135366 2049.41939944 854.52876556 2049.42158969 837.09617729 2049.4240952 C829.91671706 2049.42512356 822.73725683 2049.4261136 815.5577966 2049.42711145 C814.36787165 2049.42727733 814.36787165 2049.42727733 813.15390781 2049.42744657 C767.69787035 2049.43377022 722.24183313 2049.43789573 676.78579521 2049.43743801 C675.08486294 2049.43742223 673.38393067 2049.4374065 671.6829984 2049.4373908 C664.00352832 2049.43731742 656.32405823 2049.43722925 648.64458814 2049.43713692 C645.22015776 2049.43709579 641.79572737 2049.43705565 638.37129699 2049.43701561 C636.65730838 2049.43699521 634.94331978 2049.43697419 633.22933117 2049.43695255 C579.03336256 2049.43627233 524.83740049 2049.44358931 470.64143372 2049.45749283 C456.98685139 2049.46099389 443.33226907 2049.46446337 429.67768669 2049.46775723 C428.4165093 2049.46806154 428.4165093 2049.46806154 427.12985358 2049.46837199 C401.21261752 2049.47458778 375.295382 2049.47835271 349.37814522 2049.47961521 C348.15744519 2049.47967514 348.15744519 2049.47967514 346.91208455 2049.47973627 C329.04645921 2049.48058958 311.18083391 2049.48085073 293.31520855 2049.4805659 C286.9224195 2049.48046942 280.52963046 2049.48041737 274.13684141 2049.48038717 C272.54650015 2049.48037925 270.95615888 2049.48036905 269.36581762 2049.48035655 C244.03539424 2049.48018029 218.70497646 2049.48587538 193.37455469 2049.49451036 C167.85895047 2049.50316426 142.34335401 2049.50534815 116.82774894 2049.49874904 C113.29941857 2049.49783678 109.77108819 2049.4969935 106.2427578 2049.49619102 C105.5511316 2049.49603094 104.85950541 2049.49587085 104.14692085 2049.49570591 C93.87759472 2049.49349932 83.60828075 2049.49686384 73.33895683 2049.50355148 C61.90863536 2049.51095851 50.47833883 2049.51180178 39.04801736 2049.50367008 C33.2943291 2049.49978161 27.54068833 2049.49903304 21.78700338 2049.50712743 C16.54644252 2049.51443534 11.30596848 2049.51243565 6.0654114 2049.50320356 C4.18744494 2049.50149081 2.30947159 2049.50308242 0.43151218 2049.50850477 C-32.57655081 2049.59738145 -60.25810437 2042.48406999 -84.85758972 2019.50168228 C-110.06637887 1992.91304363 -112.99272745 1960.54686932 -112.92490704 1925.58327354 C-112.91949969 1921.63628635 -112.92582056 1917.68931387 -112.93058074 1913.74232823 C-112.93734698 1906.80833932 -112.9367186 1899.87438189 -112.93121365 1892.94039232 C-112.92300982 1882.55994822 -112.92638725 1872.17952953 -112.93197893 1861.79908485 C-112.94117132 1844.10566502 -112.94088262 1826.41225669 -112.93541718 1808.71883583 C-112.92991296 1790.7906782 -112.92875536 1772.86252813 -112.93289185 1754.93437004 C-112.93315019 1753.80163863 -112.93340854 1752.66890722 -112.93367471 1751.50185062 C-112.93474126 1746.888346 -112.93583868 1742.27484138 -112.93697526 1737.66133678 C-112.94755237 1694.69749807 -112.94827202 1651.73366443 -112.94268036 1608.76982498 C-112.94251477 1607.49689151 -112.94234918 1606.22395805 -112.94217857 1604.91245084 C-112.94201271 1603.63748125 -112.94184685 1602.36251167 -112.94167596 1601.04890664 C-112.93663087 1562.21604116 -112.93532622 1523.38317778 -112.93772125 1484.55031204 C-112.93787621 1481.95051726 -112.93803052 1479.35072248 -112.93818419 1476.7509277 C-112.93880512 1466.30359353 -112.93944245 1455.85625937 -112.94010372 1445.40892521 C-112.94193779 1416.20377807 -112.94308224 1386.99863092 -112.94367599 1357.79348373 C-112.94368973 1357.12863445 -112.94370347 1356.46378516 -112.94371762 1355.77878893 C-112.94459504 1312.72454889 -112.94239387 1269.6703096 -112.93797684 1226.61606979 C-112.9379066 1225.92879354 -112.93783636 1225.24151728 -112.937764 1224.53341447 C-112.93541133 1201.51335253 -112.93289918 1178.49329061 -112.93037074 1155.4732287 C-112.92272997 1085.86102915 -112.91854262 1016.2488323 -112.9306014 891.93007979 C-112.93312784 868.91581812 -112.93562488 845.90155645 -112.93797684 822.88729477 C-112.93804733 822.20021165 -112.93811782 821.51312853 -112.93819044 820.80522471 C-112.94260139 777.77344331 -112.9445651 734.74166244 -112.94367599 691.70988083 C-112.94366248 691.0452528 -112.94364897 690.38062478 -112.94363505 689.69585651 C-112.94302159 659.85215662 -112.94174396 630.00845676 -112.93985499 600.16475692 C-112.9391967 589.7267277 -112.93857054 579.28869847 -112.93795357 568.85066925 C-112.93779879 566.25392751 -112.93764133 563.65718578 -112.93748117 561.06044404 C-112.93509335 522.23726638 -112.93712811 483.41409109 -112.94217857 444.59091373 C-112.94234416 443.31798026 -112.94250975 442.04504679 -112.94268036 440.73353958 C-112.94284572 439.46295135 -112.94301109 438.19236312 -112.94318146 436.88327222 C-112.94869593 394.04412959 -112.94667272 351.20499304 -112.93611887 308.36585128 C-112.93501415 303.76689904 -112.93394074 299.16794678 -112.93289185 294.56899452 C-112.93263143 293.44032328 -112.93237102 292.31165203 -112.93210271 291.14877862 C-112.92815597 273.26789948 -112.9309065 255.38702789 -112.93642986 237.50614943 C-112.94171688 219.92951496 -112.93986976 202.35289327 -112.93040168 184.77626042 C-112.92506116 174.46859568 -112.92518154 164.16096594 -112.93336488 153.85330286 C-112.93825305 147.00730857 -112.93588763 140.16134154 -112.92763117 133.31535054 C-112.92315329 129.43482073 -112.92173698 125.55436065 -112.9292642 121.67383397 C-112.99598413 84.72123927 -108.34041363 55.0615625 -82.29508972 27.43918228 C-59.27583189 5.40120719 -30.62960826 -0.08294546 0 0 Z M505.32991028 220.25168228 C504.27304016 220.43440689 503.21617004 220.6171315 502.12727356 220.80539322 C425.26019593 234.42740698 357.34033541 279.21605814 312.66926575 342.87765884 C307.87346781 349.81513335 303.44464011 356.8906664 299.32991028 364.25168228 C298.87648254 365.05750748 298.42305481 365.86333267 297.95588684 366.69357681 C280.55818651 397.92692326 270.15564567 431.08465184 264.32991028 466.25168228 C264.20245422 467.01819107 264.07499817 467.78469986 263.94367981 468.57443619 C252.48959716 540.78791717 273.54397509 617.11749456 315.32991028 676.25168228 C315.85762024 676.99853287 316.3853302 677.74538345 316.92903137 678.51486588 C322.98269052 686.99844727 329.45930728 694.86675285 336.64241028 702.41574478 C338.87614231 704.77285155 341.02823396 707.16328934 343.14241028 709.62668228 C348.72035738 716.05344742 354.85753323 721.74066003 361.32991028 727.25168228 C362.16908997 727.98000259 363.00826965 728.70832291 363.87287903 729.45871353 C378.60768986 742.0391934 394.49369613 752.69536168 411.32991028 762.25168228 C412.09883606 762.69109146 412.86776184 763.13050064 413.6599884 763.58322525 C441.94204315 779.58427636 473.41124366 789.64963059 505.32991028 795.25168228 C506.63508606 795.49724869 506.63508606 795.49724869 507.96662903 795.74777603 C537.41289264 801.13809055 570.92871795 800.63975094 600.32991028 795.25168228 C601.91304016 794.97759537 601.91304016 794.97759537 603.52815247 794.69797134 C658.19787747 785.01107506 708.03453198 759.76057592 748.98616028 722.37277603 C751.1291534 720.43336725 753.31335666 718.55838929 755.51741028 716.68918228 C758.77206535 713.84946331 761.58673892 710.81287707 764.37287903 707.51730728 C766.65690743 704.87312271 769.05643575 702.35496862 771.45491028 699.81418228 C787.07748637 682.94603342 799.5092472 663.46175751 810.32991028 643.25168228 C810.66055481 642.64098892 810.99119934 642.03029556 811.3318634 641.40109634 C825.93446721 614.21354473 835.01947375 584.56355427 840.32991028 554.25168228 C840.49507141 553.32500748 840.66023254 552.39833267 840.83039856 551.44357681 C853.13260878 478.96612942 833.54245842 400.83024621 791.44709778 341.13058853 C774.37697609 317.3238916 754.06715343 294.54766347 730.32991028 277.25168228 C728.88358215 276.13019791 728.88358215 276.13019791 727.40803528 274.98605728 C698.84033311 252.9039956 666.00899691 237.07632675 631.32991028 227.25168228 C630.51425598 227.0175563 629.69860168 226.78343033 628.85823059 226.54220963 C608.38561248 220.76291723 586.68719963 217.15839879 565.38850403 217.04855728 C564.01287292 217.03796783 564.01287292 217.03796783 562.60945129 217.02716446 C533.84408984 216.84905392 533.84408984 216.84905392 505.32991028 220.25168228 Z M494.32991028 970.25168228 C493.03246887 970.41797134 491.73502747 970.58426041 490.39826965 970.75558853 C412.6582166 980.91469166 336.99267536 1011.00320319 274.32991028 1058.25168228 C273.72082825 1058.70913834 273.11174622 1059.16659439 272.48420715 1059.63791275 C264.94444689 1065.31778199 257.57194721 1071.19702539 250.32991028 1077.25168228 C249.7765802 1077.71332779 249.22325012 1078.1749733 248.65315247 1078.65060806 C241.64908555 1084.51182474 234.92958897 1090.48626518 228.54866028 1097.03293228 C226.58686693 1098.99472563 224.58151712 1100.78619951 222.45491028 1102.56418228 C217.13254862 1107.12620656 212.54612728 1112.39222535 207.85139465 1117.58176041 C206.41565188 1119.15757565 204.96339468 1120.71550038 203.50178528 1122.26730728 C197.14435571 1129.04050619 191.35069773 1136.132536 185.69172668 1143.49582291 C184.37386641 1145.1950074 183.03493917 1146.87448268 181.68537903 1148.54855728 C125.56204993 1218.33104098 92.3324166 1306.3651281 84.32991028 1395.25168228 C84.23564758 1396.20840836 84.14138489 1397.16513443 84.04426575 1398.1508522 C81.26325549 1430.30161921 81.60270671 1464.31484547 86.32991028 1496.25168228 C86.48263397 1497.29790756 86.48263397 1497.29790756 86.63844299 1498.36526871 C91.08894262 1528.73490443 97.65285826 1558.08152337 107.32991028 1587.25168228 C107.86140686 1588.85825699 107.86140686 1588.85825699 108.40364075 1590.49728775 C129.13552512 1652.3643236 164.27467516 1708.36847704 208.32991028 1756.25168228 C208.87131653 1756.8435231 209.41272278 1757.43536392 209.97053528 1758.04513931 C217.92421872 1766.72286731 226.04792431 1775.04987069 234.82307434 1782.89767838 C236.29242968 1784.21800318 237.74502555 1785.5569044 239.19709778 1786.89621353 C263.77677499 1809.56104337 291.41554839 1828.58901175 320.32991028 1845.25168228 C321.25529602 1845.78535416 322.18068176 1846.31902603 323.1341095 1846.86886978 C375.65648921 1876.8979902 433.58713201 1894.91218153 493.32991028 1903.25168228 C493.99601318 1903.3446962 494.66211609 1903.43771011 495.34840393 1903.53354263 C533.58501251 1908.76557944 574.11433377 1908.49137384 612.32991028 1903.25168228 C613.02592346 1903.15693619 613.72193665 1903.06219009 614.43904114 1902.96457291 C660.87804738 1896.58149108 705.68135975 1883.7088551 748.32991028 1864.25168228 C750.04345194 1863.48605728 751.75699361 1862.72043228 753.47053528 1861.95480728 C804.55001621 1838.77072488 849.69023369 1803.90649283 889.20491028 1764.50168228 C889.75111023 1763.95816116 890.29731018 1763.41464005 890.86006165 1762.85464859 C896.90048857 1756.836681 902.84834772 1750.79151496 908.32991028 1744.25168228 C909.14637024 1743.2873024 909.14637024 1743.2873024 909.97932434 1742.30344009 C965.79130828 1676.01247141 1002.68504537 1597.12130157 1022.57991028 1437.93918228 C1022.58058502 1436.90800278 1022.58125977 1435.87682327 1022.58195496 1434.8143959 C1022.5298613 1384.32979981 1014.20896549 1335.16846056 998.32991028 1287.25168228 C998.03117004 1286.33386978 997.73242981 1285.41605728 997.42463684 1284.47043228 C978.44006229 1226.34263343 945.96965177 1170.62597669 904.52522278 1125.65793228 C903.3260232 1124.34350713 902.13429699 1123.02144685 900.98225403 1121.66550064 C895.5884401 1115.34025496 889.74509271 1109.48075789 883.87043762 1103.60690689 C882.09229256 1101.82657976 880.32231466 1100.03839851 878.55256653 1098.24972916 C872.50330087 1092.17135768 866.39634631 1086.42478363 859.65559387 1081.10983658 C857.41696299 1079.3212349 855.30578593 1077.44897406 853.20491028 1075.50168228 C791.85294172 1020.48141155 709.73831086 986.73813904 592.32991028 968.25168228 C591.3324176 968.15741959 590.33492493 968.06315689 589.3072052 967.96603775 C577.56352105 966.97281293 565.79552462 967.0080187 554.01741028 967.00168228 C552.32241898 967.00067017 552.32241898 967.00067017 550.59318542 966.9996376 C531.65453533 967.01753218 513.12231499 967.78742271 494.32991028 970.25168228 Z " fill="#FEFEFE" transform="translate(493.6700897216797,519.7483177185059)"/>
<path d="M0 0 C1.9244541 -0.00387328 3.84890533 -0.00949904 5.77334982 -0.0167096 C11.06088202 -0.03144368 16.34811764 -0.02130722 21.63564047 -0.0070976 C27.38832797 0.00395448 33.14097423 -0.00820577 38.89365852 -0.01740509 C48.97572316 -0.03031519 59.05769993 -0.02834179 69.13976479 -0.0166254 C79.95500764 -0.00409139 90.77019876 -0.00006387 101.58544731 -0.00673962 C102.26914044 -0.00715583 102.95283356 -0.00757204 103.65724466 -0.00800086 C106.44192247 -0.00972562 109.22660023 -0.01151348 112.01127794 -0.01338105 C137.9347315 -0.03076147 163.8581489 -0.02859814 189.78160286 -0.01404476 C214.76308024 -0.00003831 239.74454129 0.00699919 264.72602272 0.00424671 C266.29491662 0.00408383 267.86381053 0.00392179 269.43270443 0.0037606 C275.73741113 0.0031023 282.04211782 0.00239854 288.34682451 0.00163526 C305.97091028 -0.00047636 323.59499598 -0.00122885 341.21908188 -0.00094795 C342.4229113 -0.00092938 342.4229113 -0.00092938 343.65106051 -0.00091044 C369.22338503 -0.00042106 394.79570449 0.00600377 420.36802673 0.01660919 C421.19743171 0.01695263 422.02683669 0.01729607 422.88137515 0.01764991 C436.35041217 0.02324855 449.81944905 0.02918277 463.28848591 0.03513897 C516.71344452 0.05874252 570.13837457 0.06493306 623.56333733 0.05452633 C626.93970331 0.05387312 630.31606929 0.05322181 633.69243528 0.05257083 C634.52723012 0.05240979 635.36202496 0.05224876 636.22211661 0.05208284 C645.46714409 0.05030337 654.71217159 0.04858123 663.9571991 0.04692841 C664.78625622 0.04677904 665.61531334 0.04662967 666.46949341 0.04647578 C710.43025234 0.03861855 754.39100874 0.04422495 798.35176678 0.0550417 C804.65020855 0.05659093 810.94865033 0.05810429 817.24709211 0.05961653 C819.59615766 0.06018476 821.9452232 0.06076625 824.29428875 0.06134826 C841.47801569 0.06555044 858.66173978 0.06774589 875.84546709 0.06466317 C876.6199165 0.06452456 877.3943659 0.06438595 878.19228347 0.06424314 C882.09157246 0.06353274 885.99086143 0.06278654 889.8901504 0.06202578 C918.06355239 0.05653831 946.23692429 0.06065404 974.4103197 0.08201433 C977.18511095 0.08407664 979.95990222 0.08609338 982.73469353 0.08807468 C983.75617108 0.0888111 983.75617108 0.0888111 984.79828454 0.0895624 C996.24177636 0.09753123 1007.68523568 0.09367462 1019.12872737 0.0867258 C1029.07709531 0.08151886 1039.02541829 0.08717148 1048.97377678 0.10177914 C1054.64744316 0.10980817 1060.32100342 0.11306292 1065.99466933 0.10320658 C1071.1544403 0.09434471 1076.31400692 0.09924063 1081.47375918 0.11518602 C1083.33030965 0.11850491 1085.18687758 0.11678823 1087.04341654 0.10945753 C1103.22735525 0.05026765 1115.52421133 2.29481609 1127.77866936 13.62557125 C1136.64015983 22.91053118 1140.34181355 34.2828623 1140.29609489 46.84143734 C1140.30289156 48.22203287 1140.30289156 48.22203287 1140.30982554 49.63051921 C1140.32245088 52.70403536 1140.32085035 55.77737389 1140.3191967 58.85091305 C1140.32518318 61.05905033 1140.331989 63.26718551 1140.33955193 65.47531796 C1140.35720862 71.46726482 1140.36190722 77.45915454 1140.3631835 83.45112491 C1140.36460603 87.19761704 1140.36887762 90.94409469 1140.37417793 94.69058323 C1140.39172392 107.09472527 1140.40101831 119.49883954 1140.39951698 131.90299251 C1140.39939712 132.90491825 1140.39939712 132.90491825 1140.39927483 133.92708492 C1140.39915218 134.93024398 1140.39915218 134.93024398 1140.39902706 135.95366887 C1140.3982148 146.78307526 1140.41733948 157.61234235 1140.44555156 168.44170847 C1140.47433624 179.57939625 1140.48772317 190.71702665 1140.48636401 201.85475379 C1140.48585496 208.10039559 1140.49150635 214.34587977 1140.51272011 220.59148884 C1140.53213956 226.46929349 1140.53220137 232.34679077 1140.51768684 238.22460651 C1140.51560215 240.37556567 1140.52027925 242.52654424 1140.53240776 244.67747021 C1140.64239175 265.54272666 1140.64239175 265.54272666 1136.02866936 275.50057125 C1137.77981554 277.25171744 1140.19401864 276.98522855 1142.54868889 277.29769039 C1190.93431009 283.86019183 1235.04391734 306.86460376 1270.02866936 340.50057125 C1270.57555412 341.02022457 1271.12243889 341.53987789 1271.68589592 342.07527828 C1279.42915565 349.45706464 1286.3520273 357.1800997 1292.73765373 365.76521969 C1293.57874049 366.89578789 1294.42611449 368.02171421 1295.28062248 369.14217281 C1329.28425909 413.73489752 1340.57070996 466.5729203 1340.41089533 521.58549627 C1340.40271825 525.58089357 1340.41228821 529.57626003 1340.41940588 533.57165402 C1340.42951354 540.57702795 1340.42864251 547.58233165 1340.42035525 554.58770698 C1340.40800528 565.07500198 1340.41313458 575.56224071 1340.42150317 586.04953708 C1340.43526464 603.9288331 1340.43487199 621.80810347 1340.42666054 639.68740177 C1340.41839472 657.79562112 1340.41667542 675.90382359 1340.42287254 694.01204395 C1340.42326006 695.15754797 1340.42364758 696.30305198 1340.42404684 697.48326824 C1340.42564673 702.14904585 1340.42729286 706.81482345 1340.42899767 711.48060103 C1340.44485057 754.89814458 1340.44594845 798.31567682 1340.43755531 841.73322201 C1340.43730693 843.01874026 1340.43705854 844.30425851 1340.43680263 845.62873185 C1340.43655384 846.91631528 1340.43630505 848.2038987 1340.43604872 849.5304998 C1340.42847654 888.77146594 1340.42652622 928.01242741 1340.43011665 967.25339413 C1340.43034909 969.88205239 1340.43058056 972.51071066 1340.43081106 975.13936893 C1340.43174248 985.70309293 1340.43269848 996.26681694 1340.43369035 1006.83054094 C1340.43644126 1036.35976457 1340.43815808 1065.8889882 1340.43904877 1095.41821194 C1340.43907968 1096.42649317 1340.43907968 1096.42649317 1340.43911121 1097.45514373 C1340.44042705 1140.97489258 1340.43712706 1184.49463975 1340.43050003 1228.01438808 C1340.43039468 1228.70893911 1340.43028932 1229.40349013 1340.43018077 1230.11908815 C1340.42665192 1253.3817884 1340.42288362 1276.64448861 1340.41909088 1299.90718881 C1340.40763006 1370.24963657 1340.40134878 1440.59207832 1340.41943688 1566.21610202 C1340.42322662 1589.47298614 1340.42697225 1612.72987026 1340.43050003 1635.98675442 C1340.43065863 1637.02828969 1340.43065863 1637.02828969 1340.43082044 1638.09086607 C1340.43743837 1681.58822113 1340.44038214 1725.08557502 1340.43904877 1768.58293056 C1340.43901836 1769.5908735 1340.43901836 1769.5908735 1340.43898735 1770.61917891 C1340.4380671 1800.79417871 1340.43615052 1830.96917838 1340.43331726 1861.14417807 C1340.43232985 1871.69840769 1340.43139061 1882.25263732 1340.43046513 1892.80686695 C1340.43023296 1895.43243819 1340.42999677 1898.05800943 1340.42975654 1900.68358067 C1340.42617703 1939.91319263 1340.42922262 1979.14279934 1340.43680263 2018.37241065 C1340.43717521 2020.30068802 1340.43717521 2020.30068802 1340.43755531 2022.26792049 C1340.43780336 2023.55106298 1340.43805141 2024.83420546 1340.43830697 2026.15623105 C1340.44658458 2069.44957388 1340.44353183 2112.74290315 1340.42771308 2156.03624403 C1340.42605605 2160.68719553 1340.42444594 2165.33814703 1340.42287254 2169.98909855 C1340.42248192 2171.13050618 1340.4220913 2172.27191381 1340.42168885 2173.44790955 C1340.4157766 2191.50568059 1340.41988615 2209.56343474 1340.42817956 2227.62120426 C1340.43612437 2245.38629831 1340.43331338 2263.15136394 1340.4191373 2280.9164544 C1340.41114808 2291.32471194 1340.41126927 2301.73289146 1340.42358209 2312.14114523 C1340.43094627 2319.06512979 1340.42731637 2325.98905395 1340.41498153 2332.91303126 C1340.40830252 2336.83055103 1340.40605049 2340.74791617 1340.41743108 2344.66542866 C1340.47765883 2366.94247563 1339.623991 2389.08094053 1334.27866936 2410.81307125 C1334.01972893 2411.88806881 1333.7607885 2412.96306637 1333.49400139 2414.07063961 C1321.40995379 2462.72825267 1292.14577567 2509.02910798 1252.02866936 2539.50057125 C1251.19432365 2540.14155758 1251.19432365 2540.14155758 1250.34312248 2540.79549313 C1241.28652595 2547.72806702 1231.94912483 2553.88028686 1222.02866936 2559.50057125 C1221.43650627 2559.84185055 1220.84434319 2560.18312984 1220.23423576 2560.53475094 C1200.33656306 2571.94384173 1178.34023539 2579.46962038 1155.96616936 2584.25057125 C1155.046101 2584.44932858 1154.12603264 2584.6480859 1153.17808342 2584.85286617 C1137.38135422 2588.05531397 1121.70155629 2588.79535513 1105.63696575 2588.75504684 C1103.63100604 2588.75744194 1101.62504722 2588.76071048 1099.61909017 2588.76476344 C1094.13320921 2588.77333512 1088.64739718 2588.7695772 1083.16151526 2588.76370772 C1077.18311557 2588.75952123 1071.20472809 2588.76694852 1065.22633141 2588.77286023 C1054.75689229 2588.78160993 1044.28746994 2588.78300746 1033.8180294 2588.77935696 C1022.59087945 2588.7754736 1011.36374217 2588.77594692 1000.13659286 2588.78166676 C999.42597655 2588.78202558 998.71536024 2588.78238441 997.98321011 2588.78275411 C995.08870097 2588.78422911 992.19419186 2588.78573352 989.29968276 2588.78727557 C959.9539737 2588.80289095 930.60827334 2588.80559167 901.26256086 2588.80311951 C897.2109821 2588.80278104 893.15940333 2588.80245895 889.10782456 2588.80215383 C888.30302514 2588.80209278 887.49822572 2588.80203174 886.66903844 2588.80196885 C868.81599709 2588.80069575 850.96295693 2588.80330052 833.10991593 2588.80667989 C829.03070986 2588.80745064 824.9515038 2588.80819538 820.87229773 2588.80894491 C819.23508376 2588.8092466 817.5978698 2588.80954848 815.96065583 2588.80985055 C814.74332872 2588.81007507 814.74332872 2588.81007507 813.50140915 2588.81030412 C811.85983043 2588.81060766 810.21825171 2588.81091234 808.57667299 2588.81121817 C762.01015395 2588.81988877 715.44363596 2588.82453686 668.8771162 2588.82027054 C668.01522409 2588.82019248 667.15333199 2588.82011442 666.26532193 2588.820034 C656.65479871 2588.81916124 647.04427549 2588.81823198 637.43375228 2588.81728337 C636.5661008 2588.81719786 635.69844932 2588.81711235 634.80450537 2588.81702425 C627.59600171 2588.81631355 627.59600171 2588.81631355 624.27798374 2588.81598202 C568.78479753 2588.81044672 513.29162795 2588.81798805 457.79844475 2588.83675289 C443.81560997 2588.8414753 429.83277518 2588.8461559 415.8499403 2588.85058975 C414.55838275 2588.85099974 414.55838275 2588.85099974 413.24073312 2588.851418 C386.69296737 2588.85979238 360.14520301 2588.86446925 333.59743595 2588.86529732 C332.34677938 2588.86533687 332.34677938 2588.86533687 331.07085701 2588.86537722 C312.76559759 2588.86591806 294.46033828 2588.86554541 276.15507889 2588.8643375 C269.60481486 2588.8639119 263.05455083 2588.86354677 256.5042868 2588.86320806 C254.874825 2588.86312276 253.24536321 2588.86303382 251.61590142 2588.86294124 C225.68045183 2588.86149406 199.74501357 2588.86860839 173.8095667 2588.8799452 C146.95358689 2588.89160837 120.09762725 2588.89214454 93.24164734 2588.88010178 C90.35368196 2588.87885002 87.46571657 2588.87764653 84.57775116 2588.87648106 C83.86902336 2588.87619076 83.16029555 2588.87590047 82.43009115 2588.87560138 C71.23859052 2588.87128738 60.04711872 2588.87698687 48.85562263 2588.88692125 C37.83298008 2588.89649265 26.81037352 2588.89498783 15.78773119 2588.88271502 C9.89911754 2588.87646289 4.01060765 2588.87484685 -1.87799998 2588.88657836 C-7.24794574 2588.89717776 -12.61770059 2588.89366649 -17.98763636 2588.87947383 C-19.90568123 2588.87677266 -21.82374181 2588.87895552 -23.74177179 2588.88698098 C-41.95455211 2588.95791097 -60.10386707 2587.21569863 -77.78383064 2582.68807125 C-78.82241219 2582.42872799 -79.86099373 2582.16938473 -80.93104744 2581.90218258 C-114.84036498 2573.24765641 -146.44181469 2557.44839431 -172.97133064 2534.50057125 C-173.74090096 2533.84186031 -174.51047127 2533.18314938 -175.30336189 2532.5044775 C-188.09169747 2521.28552307 -199.9646456 2509.27295124 -209.97133064 2495.50057125 C-210.73703377 2494.45643063 -211.50273689 2493.41229 -212.29164314 2492.33650875 C-234.89243118 2460.60090744 -249.1860974 2424.17923102 -253.97133064 2385.50057125 C-254.1036375 2384.44055081 -254.1036375 2384.44055081 -254.23861722 2383.35911582 C-255.03499488 2376.2896775 -255.11156726 2369.28788613 -255.09898114 2362.17914039 C-255.10022599 2360.84479413 -255.10190798 2359.51044823 -255.1039835 2358.176103 C-255.10841943 2354.5115544 -255.10666056 2350.84703117 -255.10388172 2347.1824819 C-255.10195519 2343.18002435 -255.10584409 2339.17757164 -255.10897851 2335.17511544 C-255.11368914 2328.13395569 -255.11467754 2321.09280298 -255.11325017 2314.05164192 C-255.11112902 2303.51055465 -255.1147424 2292.96947465 -255.11946494 2282.4283885 C-255.12733938 2264.46335169 -255.13042704 2246.49831687 -255.13091087 2228.53327847 C-255.13141311 2210.32362363 -255.1340585 2192.11397101 -255.13931847 2173.9043169 C-255.1396486 2172.75477272 -255.13997873 2171.60522855 -255.14031887 2170.4208497 C-255.14166886 2165.73901707 -255.14303152 2161.05718444 -255.14441098 2156.37535182 C-255.16071773 2100.93212956 -255.16710013 2045.48890773 -255.17185885 1990.04568348 C-255.17424165 1962.44005534 -255.17794504 1934.83442743 -255.18189594 1907.22879947 C-255.18840966 1861.69103925 -255.19444879 1816.15327898 -255.19943047 1770.61551857 C-255.19950434 1769.94035748 -255.19957821 1769.2651964 -255.19965432 1768.56957588 C-255.20434909 1725.54378768 -255.20717223 1682.51799956 -255.20881725 1639.49221114 C-255.20895282 1635.96483116 -255.20909185 1632.43745119 -255.20923079 1628.91007121 C-255.20945326 1623.25486727 -255.20967463 1617.59966333 -255.20989467 1611.94445939 C-255.20992194 1611.24368681 -255.20994921 1610.54291424 -255.2099773 1609.82090613 C-255.21003242 1608.40459097 -255.21008753 1606.98827581 -255.21014264 1605.57196065 C-255.21052925 1595.63699246 -255.21091719 1585.70202427 -255.21131177 1575.76705609 C-255.21145287 1572.21213096 -255.21159295 1568.65720583 -255.21173066 1565.1022807 C-255.21433459 1497.96886857 -255.21966275 1430.83545874 -255.23561287 1363.7020483 C-255.23578066 1362.99542534 -255.23594846 1362.28880237 -255.23612133 1361.56076659 C-255.24137201 1339.48284009 -255.24694637 1317.40491367 -255.25258064 1295.32698727 C-255.25836173 1272.67311417 -255.26409234 1250.01924107 -255.26953697 1227.36536789 C-255.26970478 1226.66781988 -255.26987259 1225.97027187 -255.27004548 1225.25158604 C-255.28054086 1181.55570244 -255.28740088 1137.85981947 -255.29040337 1094.16393471 C-255.29045018 1093.48890982 -255.29049699 1092.81388493 -255.29054522 1092.11840475 C-255.29264202 1061.80567638 -255.29385362 1031.49294803 -255.29421524 1001.18021959 C-255.29435142 990.57750771 -255.29456041 979.97479583 -255.29480849 969.37208395 C-255.29487005 966.73437587 -255.29492838 964.0966678 -255.29498344 961.45895972 C-255.29590325 919.42867749 -255.30587137 877.39840348 -255.32044093 835.36812395 C-255.3350577 793.0322622 -255.34009827 750.69641052 -255.33202139 708.36054669 C-255.33090603 702.50871094 -255.32989536 696.65687518 -255.32894707 690.80503941 C-255.3287571 689.65793243 -255.32856713 688.51082545 -255.32837141 687.32895765 C-255.3256391 669.17481035 -255.33297544 651.02068169 -255.34452044 632.86653844 C-255.35566646 615.0097337 -255.35608723 597.15295528 -255.34515025 579.29615012 C-255.33906092 568.83148994 -255.34112963 558.36690926 -255.35540222 547.9022566 C-255.36406878 540.94333089 -255.361758 533.9844634 -255.35070351 527.02554125 C-255.34474813 523.08646922 -255.34326753 519.14755251 -255.35538837 515.20849108 C-255.41697455 493.80654397 -254.54180564 472.79360311 -249.28383064 451.93807125 C-249.02746834 450.90617672 -248.77110603 449.87428219 -248.50697517 448.81111813 C-238.98575019 411.81371086 -220.62753461 378.00686561 -194.47914314 350.21932125 C-192.70630531 348.29736622 -191.03189656 346.38379886 -189.38148689 344.3638525 C-187.43263138 342.04859952 -185.58822092 340.1225594 -183.28383064 338.18807125 C-181.09934521 336.33469082 -178.94904533 334.47952631 -176.86586189 332.51229 C-145.65164359 303.12472131 -104.21045114 285.68140219 -62.52894783 277.98934078 C-58.65523718 277.24906122 -54.81625224 276.37727628 -50.97133064 275.50057125 C-51.24847908 274.78771969 -51.52562752 274.07486813 -51.81117439 273.340415 C-52.17340096 272.38264156 -52.53562752 271.42486813 -52.90883064 270.43807125 C-53.26847908 269.49834469 -53.62812752 268.55861813 -53.99867439 267.590415 C-55.96753262 261.33592961 -56.11877866 255.11931697 -56.11177254 248.62872982 C-56.11474366 247.75874656 -56.11771478 246.8887633 -56.12077594 245.99241692 C-56.12941832 243.08944481 -56.13096741 240.18651416 -56.13246346 237.28353024 C-56.13709485 235.19686451 -56.14211994 233.11019963 -56.14750862 231.02353573 C-56.16060504 225.36203407 -56.16707238 219.70054427 -56.17151928 214.03902984 C-56.1744549 210.49755842 -56.17856067 206.9560902 -56.18302345 203.4146204 C-56.1966921 192.32156179 -56.20636144 181.22851055 -56.21022534 170.1354441 C-56.21470246 157.35394314 -56.23223701 144.5725493 -56.26122594 131.79108089 C-56.28288476 121.89610847 -56.29293189 112.0011661 -56.29426646 102.10617024 C-56.29531162 96.2036591 -56.30115764 90.30124876 -56.31908607 84.3987627 C-56.33563909 78.84109987 -56.33768728 73.28361282 -56.32894707 67.72593403 C-56.32818051 65.69514398 -56.33246858 63.66434419 -56.34240532 61.6335783 C-56.42732793 43.18417216 -55.1533998 26.46065709 -41.86976814 12.277915 C-29.67470373 0.86072507 -15.84433006 -0.08962919 0 0 Z M-116.97133064 396.50057125 C-117.78859627 397.196665 -118.60586189 397.89275875 -119.44789314 398.60994625 C-146.61490512 422.32851398 -164.81624352 456.36756685 -167.97133064 492.50057125 C-168.11541784 496.839563 -168.10740105 501.17597734 -168.10013181 505.51704752 C-168.10190682 506.82936807 -168.10368183 508.14168862 -168.10551063 509.49377646 C-168.11030239 513.14327046 -168.10887814 516.79273968 -168.10645293 520.44223505 C-168.10491007 524.42483803 -168.1091683 528.40743555 -168.11267969 532.3900367 C-168.11805406 539.39929926 -168.11969664 546.40855511 -168.11892895 553.41781957 C-168.11779395 563.91117257 -168.12237327 574.40451775 -168.12805979 584.89786899 C-168.13757429 602.78075663 -168.14227933 620.66364271 -168.14436913 638.54653263 C-168.1464969 656.67478648 -168.15075505 674.80303792 -168.15761185 692.93129063 C-168.15804246 694.07538843 -168.15847307 695.21948624 -168.15891674 696.39825367 C-168.16067507 701.05785118 -168.16244471 705.71744868 -168.16422976 710.37704618 C-168.1858341 766.88203252 -168.1967092 823.38701933 -168.205706 879.89200885 C-168.20863961 898.21437737 -168.21200945 916.53674578 -168.21567321 934.85911417 C-168.2159315 936.15155838 -168.21618979 937.44400259 -168.21645591 938.77561178 C-168.21750212 944.00431797 -168.21855055 949.23302416 -168.21960173 954.46173035 C-168.23559954 1034.10704955 -168.25070186 1113.75236949 -168.26036076 1222.78082641 C-168.26088522 1229.10327682 -168.26142253 1235.42572724 -168.26195923 1241.74817766 C-168.26213843 1243.8595932 -168.2623174 1245.97100874 -168.26249632 1248.08242428 C-168.26363338 1261.49558329 -168.26477946 1274.9087423 -168.26594451 1288.32190131 C-168.26625183 1291.86072551 -168.26655776 1295.39954971 -168.26686042 1298.93837392 C-168.27257952 1365.76666488 -168.28181954 1432.59495204 -168.30427742 1499.42323971 C-168.30451365 1500.1266284 -168.30474988 1500.8300171 -168.30499326 1501.5547206 C-168.31262109 1524.23870719 -168.32066993 1546.92269363 -168.32877853 1569.60668005 C-168.33658626 1591.44933481 -168.34430974 1613.29198959 -168.35166836 1635.13464451 C-168.35190245 1635.82898695 -168.35213654 1636.52332939 -168.35237772 1637.23871251 C-168.36701752 1680.73286063 -168.37681712 1724.22700771 -168.38154316 1767.72115803 C-168.38161675 1768.39305443 -168.38169035 1769.06495084 -168.38176617 1769.75720774 C-168.38506474 1799.92930109 -168.38720157 1830.1013944 -168.38821623 1860.27348791 C-168.38863097 1872.14058836 -168.38918586 1884.0076888 -168.38977814 1895.87478924 C-168.38983881 1897.17357203 -168.38989947 1898.47235483 -168.38996198 1899.81049467 C-168.39197808 1941.64928005 -168.40621732 1983.4880502 -168.42672314 2025.32683026 C-168.44730483 2067.46985705 -168.4551978 2109.61286623 -168.44564538 2151.75589754 C-168.44432693 2157.58067734 -168.44314889 2163.40545716 -168.44205475 2169.23023701 C-168.4418349 2170.37204505 -168.44161505 2171.5138531 -168.44138854 2172.69026138 C-168.43827535 2190.76309315 -168.44859634 2208.83589121 -168.4645303 2226.90871517 C-168.47992297 2244.68409173 -168.48102644 2262.45942172 -168.46698206 2280.2347999 C-168.45917833 2290.65278998 -168.46226695 2301.07063769 -168.48161922 2311.48861351 C-168.49338782 2318.41538003 -168.49053448 2325.34204297 -168.47600458 2332.26880395 C-168.46818163 2336.19044409 -168.46634843 2340.11180649 -168.48262362 2344.03342699 C-168.6362285 2383.65792365 -160.46525501 2419.82839358 -133.97133064 2450.50057125 C-133.14890877 2451.45705563 -132.32648689 2452.41354 -131.47914314 2453.39900875 C-107.5468538 2480.65326904 -73.14813711 2498.20129989 -36.97133064 2501.50057125 C-30.38743271 2501.85172399 -23.78930223 2501.77160408 -17.19840813 2501.75504684 C-15.21094614 2501.75743996 -13.22348504 2501.76070724 -11.23602575 2501.76476344 C-5.78289028 2501.77336243 -0.32982387 2501.76956572 5.12331263 2501.76370772 C11.05918831 2501.75953118 16.99505153 2501.76694291 22.93092418 2501.77286023 C33.33175386 2501.78162057 43.73256826 2501.78300355 54.13339996 2501.77935696 C65.28966079 2501.77547679 76.44590886 2501.7759419 87.60216904 2501.78166676 C88.66044075 2501.78220499 88.66044075 2501.78220499 89.74009169 2501.78275411 C92.61370735 2501.78422907 95.48732298 2501.78573347 98.3609386 2501.78727557 C127.51153455 2501.80290039 156.66212173 2501.80559064 185.81272112 2501.80311951 C189.83889221 2501.80278105 193.8650633 2501.80245896 197.8912344 2501.80215383 C199.0908217 2501.80206226 199.0908217 2501.80206226 200.31464308 2501.80196885 C218.04653819 2501.80069634 235.77843209 2501.80329944 253.51032685 2501.80667989 C257.56052182 2501.80745064 261.6107168 2501.80819537 265.66091178 2501.80894491 C267.28645101 2501.8092466 268.91199024 2501.80954848 270.53752947 2501.80985055 C271.34328706 2501.81000023 272.14904466 2501.81014991 272.97921915 2501.81030412 C274.60906034 2501.81060766 276.23890153 2501.81091234 277.86874272 2501.81121817 C324.10929359 2501.81989017 370.34984339 2501.82453585 416.59039497 2501.82027054 C417.44645929 2501.82019248 418.3025236 2501.82011442 419.18452926 2501.820034 C428.73032 2501.81916122 438.27611074 2501.81823196 447.82190147 2501.81728337 C449.11464106 2501.81715511 449.11464106 2501.81715511 450.4334966 2501.81702425 C455.6614306 2501.81650546 455.6614306 2501.81650546 460.8893646 2501.81598202 C516.01344283 2501.81044637 571.13750431 2501.81798847 626.26157951 2501.83675289 C640.15144281 2501.8414752 654.04130612 2501.84615575 667.93116951 2501.85058975 C668.78645114 2501.85086307 669.64173277 2501.8511364 670.52293203 2501.851418 C696.88765654 2501.85979066 723.25237965 2501.86446909 749.61710548 2501.86529732 C750.85890118 2501.86533687 750.85890118 2501.86533687 752.12578366 2501.86537722 C770.30021098 2501.86591802 788.47463818 2501.86554548 806.64906545 2501.8643375 C813.15231487 2501.86391189 819.65556429 2501.86354676 826.1588137 2501.86320806 C827.77661879 2501.86312276 829.39442388 2501.86303382 831.01222896 2501.86294124 C856.77688576 2501.86149324 882.54153116 2501.86861374 908.30618523 2501.8799452 C934.98066934 2501.89160085 961.65513314 2501.89215276 988.32961735 2501.88010178 C991.19626669 2501.87884998 994.06291605 2501.87764649 996.92956543 2501.87648106 C997.63307543 2501.87619076 998.33658543 2501.87590047 999.06141392 2501.87560138 C1010.18413585 2501.87128227 1021.30682884 2501.87699583 1032.42954623 2501.88692125 C1043.37640913 2501.89647728 1054.3232327 2501.89500741 1065.27009397 2501.88271502 C1071.1216438 2501.8764498 1076.97308907 2501.87488068 1082.82463291 2501.88657836 C1088.15514441 2501.89713631 1093.48546299 2501.89371747 1098.81596424 2501.87947383 C1100.72535023 2501.87676071 1102.63475186 2501.87899287 1104.54412306 2501.88698098 C1119.98271106 2501.94712645 1135.00850619 2500.51445817 1149.84116936 2495.93807125 C1150.65392326 2495.68976559 1151.46667717 2495.44145992 1152.30405998 2495.18562984 C1171.80105948 2488.91873715 1188.52489619 2478.73606991 1204.02866936 2465.50057125 C1204.81113029 2464.85346188 1205.59359123 2464.2063525 1206.39976311 2463.53963375 C1212.3995493 2458.44449469 1217.20593219 2452.70123332 1222.02866936 2446.50057125 C1222.74796623 2445.63174313 1223.46726311 2444.762915 1224.20835686 2443.86775875 C1244.20433875 2418.8905714 1253.21260336 2387.00194066 1253.15631986 2355.39606732 C1253.15797064 2354.08638679 1253.15962141 2352.77670625 1253.16132222 2351.42733843 C1253.16576319 2347.78993139 1253.16399733 2344.15254988 1253.16122043 2340.51514216 C1253.15929554 2336.54394637 1253.16318176 2332.57275548 1253.16631722 2328.60156104 C1253.1710299 2321.61397582 1253.17201572 2314.62639768 1253.17058888 2307.63881113 C1253.16846853 2297.17795603 1253.17207999 2286.71710827 1253.17680365 2276.2562543 C1253.18467971 2258.42841619 1253.18776583 2240.60058008 1253.18824959 2222.77274036 C1253.18875177 2204.70134795 1253.19139653 2186.62995777 1253.19665718 2168.55856609 C1253.19698731 2167.41789828 1253.19731745 2166.27723047 1253.19765759 2165.10199696 C1253.19900756 2160.45634629 1253.20037023 2155.81069563 1253.20174969 2151.16504498 C1253.21805787 2096.14581611 1253.22443899 2041.12658768 1253.22919756 1986.10735681 C1253.23158017 1958.71432337 1253.23528352 1931.32129017 1253.23923466 1903.92825691 C1253.24574832 1858.74435809 1253.25178752 1813.56045922 1253.25676918 1768.37656021 C1253.25684305 1767.70664432 1253.25691693 1767.03672843 1253.25699304 1766.34651206 C1253.26168788 1723.65428223 1253.26451098 1680.96205249 1253.26615596 1638.26982244 C1253.26629154 1634.76971356 1253.26643057 1631.26960467 1253.2665695 1627.76949578 C1253.26679197 1622.15799676 1253.26701334 1616.54649773 1253.26723338 1610.9349987 C1253.26726065 1610.23964051 1253.26728792 1609.54428232 1253.26731602 1608.82785267 C1253.26737113 1607.42247945 1253.26742624 1606.01710622 1253.26748135 1604.61173299 C1253.26786796 1594.75348673 1253.26825591 1584.89524047 1253.26865048 1575.03699422 C1253.26879159 1571.50951695 1253.26893166 1567.98203968 1253.26906938 1564.45456241 C1253.27167341 1497.83667795 1253.27700237 1431.21879581 1253.29295158 1364.60091305 C1253.29311938 1363.89967681 1253.29328717 1363.19844058 1253.29346005 1362.47595476 C1253.29871074 1340.56627283 1253.3042851 1318.65659098 1253.30991936 1296.74690914 C1253.31570041 1274.26577762 1253.321431 1251.78464609 1253.32687569 1229.30351448 C1253.32704349 1228.61129313 1253.3272113 1227.91907177 1253.32738419 1227.20587402 C1253.33787877 1183.84701845 1253.34473937 1140.48816353 1253.34774208 1097.12930679 C1253.34778889 1096.45953859 1253.3478357 1095.78977039 1253.34788393 1095.09970617 C1253.34998069 1065.02376616 1253.35119232 1034.94782618 1253.35155396 1004.87188609 C1253.35169013 994.35215829 1253.35189913 983.83243049 1253.35214721 973.31270269 C1253.35220877 970.69562237 1253.35226709 968.07854206 1253.35232216 965.46146174 C1253.35324214 923.75189737 1253.36321235 882.04234126 1253.37777965 840.33277961 C1253.39239303 798.32317305 1253.39743908 756.31357664 1253.3893601 714.30396799 C1253.38824473 708.49864137 1253.38723407 702.69331474 1253.38628578 696.88798809 C1253.38609581 695.7499866 1253.38590585 694.61198512 1253.38571012 693.43949874 C1253.38297665 675.42153587 1253.39031788 657.40359176 1253.40185915 639.38563297 C1253.41299873 621.66750398 1253.41343239 603.94940151 1253.40248896 586.23127211 C1253.39639438 575.84474328 1253.39848238 565.45829453 1253.41274094 555.07177325 C1253.42139544 548.16839676 1253.41911101 541.26507902 1253.40804223 534.36170613 C1253.40207606 530.45176951 1253.40063695 526.54198954 1253.41272709 522.63206349 C1253.46846124 503.36506214 1253.33043992 484.12830724 1247.46616936 465.56307125 C1247.21786369 464.75934078 1246.96955803 463.95561031 1246.71372795 463.12752438 C1242.02065538 448.68301105 1235.16553455 434.6520437 1226.02866936 422.50057125 C1225.40605217 421.66912594 1224.78343498 420.83768063 1224.14195061 419.98104 C1200.14028146 389.06611118 1166.30068859 368.53207899 1127.41058194 362.98445578 C1123.12963796 362.45770499 1118.92043102 362.36042925 1114.61142743 362.37292075 C1113.79720877 362.37126997 1112.98299011 362.36961919 1112.14409817 362.36791839 C1109.4169808 362.36360606 1106.68991778 362.36639074 1103.96279907 362.36914349 C1101.97892002 362.36749326 1099.9950413 362.36540671 1098.01116312 362.36292338 C1092.54001911 362.3573546 1087.06889076 362.35802954 1081.59774483 362.35970097 C1075.65276115 362.36043152 1069.7077819 362.35541041 1063.7628001 362.35112596 C1053.33667328 362.34442454 1042.91054948 362.34144824 1032.48442078 362.34099102 C1021.29661654 362.34048858 1010.10881592 362.33784118 998.92101288 362.33258343 C998.21445067 362.33225329 997.50788847 362.33192316 996.77991529 362.33158302 C993.9021904 362.33023302 991.02446551 362.32887035 988.14674064 362.32749092 C954.07777803 362.31118904 920.00881612 362.30480233 885.93985028 362.30004305 C868.97449473 362.29765969 852.00913957 362.29395618 835.04378433 362.29000595 C780.62150429 362.27734135 726.19922427 362.26655761 671.77694279 362.26316549 C669.17587392 362.26300325 666.57480504 362.26283769 663.97373617 362.26267111 C658.75727109 362.26233731 653.54080602 362.26200683 648.32434094 362.26167655 C642.21715715 362.26128965 636.10997335 362.26090004 630.00278956 362.26050549 C628.25486546 362.26039307 626.50694136 362.26028165 624.75901726 362.26017123 C568.6261916 362.25662208 512.49337875 362.2415449 456.36055797 362.21823349 C416.02539508 362.20148947 375.69023461 362.1860158 335.35506821 362.18149853 C334.52536982 362.18140504 333.69567144 362.18131156 332.84083068 362.18121524 C314.62583985 362.17919608 296.41084906 362.17804013 278.19585812 362.17768665 C271.67791928 362.17755048 265.15998044 362.17734149 258.6420416 362.1770934 C257.02055557 362.17703184 255.39906953 362.17697352 253.77758349 362.17691845 C227.95137318 362.17599904 202.12517623 362.16603569 176.29897031 362.15146096 C150.28098446 362.13683678 124.26301501 362.13180821 98.24502578 362.13988051 C94.64679603 362.14099583 91.04856625 362.1420065 87.45033646 362.14295483 C86.74500901 362.14314479 86.03968156 362.14333476 85.31298055 362.14353049 C74.16129421 362.14626023 63.00963826 362.13893472 51.85795853 362.12738146 C40.88247723 362.11622116 29.90703353 362.11607873 18.93155064 362.12675164 C13.06455848 362.13214841 7.19767162 362.13283835 1.33068813 362.12024292 C-4.0139065 362.10886483 -9.35831059 362.11147132 -14.70289877 362.12491 C-16.61739831 362.12733191 -18.53191273 362.12480307 -20.44639586 362.11651352 C-56.1073666 361.97234038 -89.77612707 372.92520706 -116.97133064 396.50057125 Z " fill="#FEFEFE" transform="translate(503.9713306427002,112.49942874908447)"/>
<path d="M0 0 C67.57839167 -1.40892526 135.64403454 22.23746609 187.12890625 66.125 C188.22465389 67.03588636 189.32104355 67.9460008 190.41796875 68.85546875 C201.89894537 78.44544208 212.72359913 88.67079815 222 100.44140625 C224.2376641 103.26209475 226.58520262 105.96535666 228.94140625 108.6875 C235.34831978 116.37579624 240.77742084 124.67968708 246.12890625 133.125 C246.77859375 134.1473877 246.77859375 134.1473877 247.44140625 135.19042969 C268.25787018 168.31788049 281.17233682 205.56920295 287.12890625 244.125 C287.2988208 245.21941406 287.2988208 245.21941406 287.47216797 246.3359375 C298.39250273 319.4832035 278.21522278 395.9865319 234.51904297 455.27099609 C231.20704434 459.68815759 227.70893639 463.92419022 224.12890625 468.125 C223.22967264 469.20897548 222.33127976 470.29364879 221.43359375 471.37890625 C210.77700979 484.15958831 199.24763484 495.86363832 186.12890625 506.125 C184.98857243 507.06360318 183.85069501 508.00519595 182.71484375 508.94921875 C168.8988358 520.36075784 153.90699462 529.67726409 138.12890625 538.125 C137.51821289 538.45564453 136.90751953 538.78628906 136.27832031 539.12695312 C70.98009897 574.19903571 -8.19232274 580.05343596 -78.87109375 559.125 C-132.44921502 542.30425649 -183.33436577 509.93287385 -217.87109375 465.125 C-218.66773438 464.12210938 -219.464375 463.11921875 -220.28515625 462.0859375 C-267.07292183 402.86576001 -287.46891477 326.89805789 -279.22607422 252.10009766 C-270.80769042 181.54547251 -235.24267423 111.05598977 -178.92578125 66.4921875 C-177.91773438 65.71101563 -176.9096875 64.92984375 -175.87109375 64.125 C-174.58197267 63.10684499 -173.29291456 62.08861027 -172.00390625 61.0703125 C-122.24615869 22.07068319 -62.96404725 2.03314784 0 0 Z M70.515625 83.3671875 C45.41491011 85.46340564 22.98700273 95.57205446 4.12890625 112.125 C3.31292969 112.84042969 2.49695312 113.55585937 1.65625 114.29296875 C-19.74969713 134.41531411 -29.7405545 161.79201271 -32.15625 190.515625 C-33.03072066 220.17158654 -21.23528381 248.12084799 -1.2734375 269.65234375 C6.7836294 277.94522724 15.01774355 284.48467671 25.12890625 290.125 C26.09570312 290.67027344 27.0625 291.21554687 28.05859375 291.77734375 C53.20062914 305.16598861 82.73707549 307.41835993 109.94140625 299.625 C126.22832121 294.65327084 140.37544181 286.3195234 153.12890625 275.125 C153.94488281 274.40957031 154.76085938 273.69414063 155.6015625 272.95703125 C177.41077283 252.45560425 188.41389444 223.14300823 189.37890625 193.625 C189.327232 192.12357594 189.23848071 190.62331168 189.12890625 189.125 C189.00902344 187.33642578 189.00902344 187.33642578 188.88671875 185.51171875 C186.79603983 160.47733202 176.73161943 137.88834023 160.12890625 119.125 C159.401875 118.29742188 158.67484375 117.46984375 157.92578125 116.6171875 C138.53864582 96.00938059 110.96434136 84.99072646 83.12890625 83.125 C82.31808594 83.06570313 81.50726562 83.00640625 80.671875 82.9453125 C77.26742824 82.82814225 73.91283216 83.1394828 70.515625 83.3671875 Z " fill="#FEFEFE" transform="translate(1041.87109375,1670.875)"/>
<path d="M0 0 C178.53 0 357.06 0 541 0 C541 119.46 541 238.92 541 362 C362.47 362 183.94 362 0 362 C0 242.54 0 123.08 0 0 Z " fill="#FDB713" transform="translate(786,113)"/>
<path d="M0 0 C0.96905273 0.32274902 1.93810547 0.64549805 2.93652344 0.97802734 C27.55180854 9.3130294 52.14310326 20.88478272 74 35 C74.71575195 35.45793945 75.43150391 35.91587891 76.16894531 36.38769531 C94.66009084 48.27882665 112.112011 61.48161271 128.2265625 76.4453125 C130.47077035 78.51251241 132.74185859 80.5203508 135.0625 82.5 C142.9857408 89.38331545 150.2101366 97.00949002 157 105 C157.88952965 106.01528364 158.78025986 107.02951608 159.671875 108.04296875 C224.56498148 182.17131673 255.32932387 280.23633296 249.3125 378.0625 C243.47347027 460.49455979 209.87337128 540.58145038 153.55078125 601.23046875 C151.5044649 603.45227318 149.51935577 605.70033738 147.5625 608 C140.36750101 616.28462624 132.38466627 623.93444036 124 631 C123.07058594 631.80695312 122.14117188 632.61390625 121.18359375 633.4453125 C100.28580741 651.5180095 77.30208328 666.89214806 53 680 C52.13858398 680.4650293 51.27716797 680.93005859 50.38964844 681.40917969 C-32.03586753 725.37560832 -131.24320908 734.46129087 -221 710 C-221.94037109 709.74524902 -222.88074219 709.49049805 -223.84960938 709.22802734 C-260.83586748 699.02161183 -296.29351586 682.61562837 -328 661 C-328.65097656 660.55865723 -329.30195312 660.11731445 -329.97265625 659.66259766 C-343.56489255 650.39891698 -356.49232151 640.34849473 -368.59375 629.1953125 C-370.61731032 627.34914221 -372.67146289 625.55735617 -374.74609375 623.76953125 C-379.20235207 619.8792624 -383.39228068 615.75536305 -387.5625 611.5625 C-388.27857422 610.85029297 -388.99464844 610.13808594 -389.73242188 609.40429688 C-394.36108988 604.76720545 -398.75519665 599.98985251 -403 595 C-403.54906006 594.35764404 -404.09812012 593.71528809 -404.66381836 593.0534668 C-413.38992625 582.77485331 -421.46530451 572.17976854 -429 561 C-429.70552002 559.95610107 -429.70552002 559.95610107 -430.42529297 558.89111328 C-440.89487185 543.30419796 -449.90321112 526.93214947 -458 510 C-458.34885254 509.2771582 -458.69770508 508.55431641 -459.05712891 507.80957031 C-482.20346054 459.47978041 -493.21121206 406.0793812 -493.25 352.625 C-493.25067474 351.77884125 -493.25134949 350.9326825 -493.25204468 350.06088257 C-493.1782068 291.1099666 -479.23143263 233.17890717 -451.97119141 180.88623047 C-450.9999739 178.99994931 -450.06625018 177.09852321 -449.13671875 175.19140625 C-444.44116841 165.74311393 -438.8485847 156.95195965 -433 148.1875 C-432.62313049 147.62163177 -432.24626099 147.05576355 -431.85797119 146.4727478 C-422.00326777 131.72282582 -411.31111969 117.68132058 -399.3359375 104.58203125 C-397.44008397 102.48644734 -395.58807519 100.36566073 -393.7421875 98.2265625 C-389.9083101 93.83787634 -385.87183383 89.68011831 -381.75 85.5625 C-381.00492188 84.81750244 -380.25984375 84.07250488 -379.4921875 83.30493164 C-374.65639774 78.51881749 -369.73443266 74.07784461 -364.375 69.8828125 C-362.14373238 68.11394573 -360.08025561 66.25461364 -358 64.3125 C-327.08480736 36.59923803 -287.60897868 16.38899437 -249 2 C-248.13117188 1.67547852 -247.26234375 1.35095703 -246.3671875 1.01660156 C-167.57892765 -27.91153303 -79.11846438 -26.58410231 0 0 Z M-258 67 C-258.91346191 67.44714355 -259.82692383 67.89428711 -260.76806641 68.35498047 C-300.20033546 87.8535715 -337.71454159 116.22164368 -365 151 C-365.92843252 152.1297105 -366.85958146 153.25719226 -367.79296875 154.3828125 C-419.51911762 217.12965288 -443.24911124 300.63331135 -435.98461914 381.2578125 C-429.30350411 446.96001848 -402.88297503 509.50939368 -359 559 C-358.14277344 559.96808594 -357.28554688 560.93617188 -356.40234375 561.93359375 C-345.70509508 573.79666922 -334.59850995 585.14931321 -322 595 C-320.87144098 595.92694648 -319.74527649 596.8568134 -318.62109375 597.7890625 C-255.69040043 649.6772002 -171.41506467 673.51024591 -90.578125 665.75 C-24.23801158 658.58896896 38.27480391 631.61811875 88 587 C88.52142578 586.5349707 89.04285156 586.06994141 89.58007812 585.59082031 C99.6368157 576.59765511 109.35220453 567.36941399 117.765625 556.79296875 C120.05473871 553.93157661 122.42850025 551.15759843 124.8125 548.375 C168.62574446 495.69075859 192.06425501 427.08983006 194 359 C194.04125 357.84886719 194.0825 356.69773437 194.125 355.51171875 C195.73278645 268.38979026 159.18222196 188.34684866 99.5234375 126.4296875 C94.8719241 121.71423577 90.0797526 117.24925336 85 113 C84.46020508 112.54641113 83.92041016 112.09282227 83.36425781 111.62548828 C28.83187177 65.9775921 -39.52476615 37.89547581 -111 36 C-111.80518066 35.97808594 -112.61036133 35.95617188 -113.43994141 35.93359375 C-163.24758531 34.80224465 -213.20246891 45.0094222 -258 67 Z " fill="#FEFEFE" transform="translate(1168,1605)"/>
<path d="M0 0 C23.6227595 24.17132866 38.28971122 54.09737526 46.375 86.6875 C46.64836182 87.77514648 46.64836182 87.77514648 46.92724609 88.88476562 C52.21684364 111.18002453 51.95433943 139.48853675 46.375 161.6875 C46.16568848 162.53119141 45.95637695 163.37488281 45.74072266 164.24414062 C37.42467272 196.89626026 22.27851522 224.07713702 -0.625 248.6875 C-1.27597656 249.40421875 -1.92695312 250.1209375 -2.59765625 250.859375 C-34.02022782 284.03773574 -80.54309149 300.42009545 -125.3359375 301.6484375 C-172.9426902 302.33754048 -216.11772116 283.92595164 -250.625 251.6875 C-251.48867188 250.88957031 -252.35234375 250.09164063 -253.2421875 249.26953125 C-284.33186993 219.48651663 -303.30065053 175.64248728 -304.625 132.6875 C-304.66496094 131.43710938 -304.70492187 130.18671875 -304.74609375 128.8984375 C-305.58203522 88.90076365 -293.68339919 48.21383222 -268.625 16.6875 C-268.20283203 16.15253906 -267.78066406 15.61757813 -267.34570312 15.06640625 C-237.20887781 -22.72925137 -194.79752935 -46.80676023 -146.625 -52.3125 C-91.55634102 -58.38263024 -39.41203712 -38.12625435 0 0 Z M-120.625 26.6875 C-128.91473303 37.46251789 -133.71102023 50.02003781 -132.625 63.6875 C-130.64557952 77.68872194 -124.67778823 89.70710956 -113.625 98.6875 C-101.45527971 107.61463034 -88.42781378 110.26549998 -73.625 108.6875 C-61.09187134 106.27783135 -49.40015345 98.82014362 -42.0078125 88.41015625 C-33.99297445 75.78977693 -30.80845155 62.47426343 -33.75 47.74609375 C-37.29876703 35.34125187 -44.5626666 24.24342951 -55.5625 17.3125 C-77.79827322 5.08628825 -102.94150644 7.71088076 -120.625 26.6875 Z " fill="#FEFEFE" transform="translate(1173.625,903.3125)"/>
<path d="M0 0 C54.12 0 108.24 0 164 0 C164 181.5 164 363 164 550 C109.88 550 55.76 550 0 550 C0 368.5 0 187 0 0 Z " fill="#FFFFFF" transform="translate(51,1613)"/>
<path d="M0 0 C53.79 0 107.58 0 163 0 C163 181.17 163 362.34 163 549 C109.21 549 55.42 549 0 549 C0 367.83 0 186.66 0 0 Z " fill="#FFFFFF" transform="translate(1863,906)"/>
<path d="M0 0 C61.05 0 122.1 0 185 0 C185 119.46 185 238.92 185 362 C123.95 362 62.9 362 0 362 C0 242.54 0 123.08 0 0 Z " fill="#F37D23" transform="translate(1142,113)"/>
<path d="M0 0 C56.43 0 112.86 0 171 0 C171 119.46 171 238.92 171 362 C114.57 362 58.14 362 0 362 C0 242.54 0 123.08 0 0 Z " fill="#2DB39D" transform="translate(971,113)"/>
<path d="M0 0 C1.24040794 -0.01475876 1.24040794 -0.01475876 2.50587463 -0.02981567 C64.89230327 -0.6186319 118.53310608 19.33551561 164.06640625 62.23828125 C164.84886719 62.96660156 165.63132812 63.69492187 166.4375 64.4453125 C173.05181378 70.80024143 178.54681081 77.9415834 184.06640625 85.23828125 C184.77925781 86.16769531 185.49210937 87.09710937 186.2265625 88.0546875 C213.74199838 124.76016956 227.28276813 169.40463962 227.31640625 214.98828125 C227.31708099 215.81086426 227.31775574 216.63344727 227.31845093 217.48095703 C227.30137956 230.60963973 226.68098714 243.3362811 224.06640625 256.23828125 C223.8947998 257.10227539 223.72319336 257.96626953 223.54638672 258.85644531 C220.84962807 272.03899208 216.91993804 284.69688297 212.06640625 297.23828125 C211.79602539 297.93759766 211.52564453 298.63691406 211.24707031 299.35742188 C190.47186462 351.99472392 146.67854044 392.95147846 95.3828125 415.3046875 C83.2518233 420.43856771 70.91582768 424.34906223 58.06640625 427.23828125 C57.12748535 427.45000977 56.18856445 427.66173828 55.22119141 427.87988281 C28.34914403 433.61901359 -3.0538334 434.24009043 -29.93359375 428.23828125 C-31.35115967 427.93229004 -31.35115967 427.93229004 -32.79736328 427.62011719 C-73.21313842 418.719448 -109.14444787 400.0782874 -138.93359375 371.23828125 C-139.45904785 370.7386084 -139.98450195 370.23893555 -140.52587891 369.72412109 C-181.26304143 330.92049343 -203.22315856 276.06066595 -204.93359375 220.23828125 C-205.69243303 163.1036522 -184.93244346 108.10726183 -145.39306641 66.76513672 C-144.40850948 65.7351235 -143.42911235 64.70015666 -142.45458984 63.66064453 C-133.75086766 54.39938855 -124.25255749 46.63933577 -113.93359375 39.23828125 C-112.98613281 38.55572266 -112.98613281 38.55572266 -112.01953125 37.859375 C-80.05359158 15.07514141 -39.44963065 0.38960937 0 0 Z M-128.93359375 90.36328125 C-159.45405221 124.89698181 -176.14809471 169.02965408 -176.18359375 214.98828125 C-176.18426849 215.77106445 -176.18494324 216.55384766 -176.18563843 217.36035156 C-176.16895137 229.55219772 -175.61706731 241.30263459 -172.93359375 253.23828125 C-172.76730469 254.00382324 -172.60101562 254.76936523 -172.4296875 255.55810547 C-166.56811113 281.8320788 -155.46847294 306.95136115 -138.93359375 328.23828125 C-138.28003906 329.10195312 -137.62648438 329.965625 -136.953125 330.85546875 C-106.18505186 370.56848686 -61.29271669 395.67565271 -11.64672852 402.55517578 C7.89734567 404.80291521 28.80701065 404.28375184 48.06640625 400.23828125 C49.41726318 399.95621826 49.41726318 399.95621826 50.79541016 399.66845703 C89.46112281 391.2582129 127.73180926 370.12428395 153.06640625 339.23828125 C153.49147461 338.73619141 153.91654297 338.23410156 154.35449219 337.71679688 C187.51283622 298.52759411 202.54238474 249.1544579 198.83935547 198.10839844 C195.03715349 157.72592878 177.61734081 119.13449118 150.07421875 89.45703125 C148.66864334 87.90378838 147.32203457 86.29607465 146.0234375 84.65234375 C143.7403902 81.83612972 141.25850816 79.64797993 138.50390625 77.30859375 C136.73418595 75.80546593 134.98693692 74.27575444 133.25390625 72.73046875 C124.7914749 65.25024765 115.74309976 59.04749551 106.06640625 53.23828125 C105.45603516 52.87105957 104.84566406 52.50383789 104.21679688 52.12548828 C85.33111344 40.96910093 64.47026221 34.50050424 43.06640625 30.23828125 C42.35564941 30.09277832 41.64489258 29.94727539 40.91259766 29.79736328 C-21.74826617 17.60205947 -86.25007401 45.33905236 -128.93359375 90.36328125 Z " fill="#FEFEFE" transform="translate(1034.93359375,811.76171875)"/>
</svg>
